# xmcd
#
# Track frame offsets:
#	150
#	15606
#	25648
#	44703
#	66293
#	97085
#	113837
#	134752
#	148404
#	163071
#	179278
#	196591
#	211037
#	227671
#
# Disc length: 3230 seconds
#
# Revision: 1
# Processed by: cddbd v1.5.2PL0 Copyright (c) Steve Scherf et al.
# Submitted via: audiograbber 1.83.01
#
DISCID=c90c9c0e
DTITLE=Tribble Trouble - no more trouble
DYEAR=2006
DGENRE=Blues
TTITLE0=You're so mean
TTITLE1=Round and around
TTITLE2=Outburst
TTITLE3=She just left the town
TTITLE4=Cold woman
TTITLE5=I get so tired
TTITLE6=Standing at the station
TTITLE7=I'm not too hungry
TTITLE8=Easy
TTITLE9=Spark
TTITLE10=Let this time never end
TTITLE11=Free my mind
TTITLE12=I've got the feeling
TTITLE13=Pretty words
EXTD=All songs written and arraged by Andreas Lindinger
EXTT0=
EXTT1=
EXTT2=
EXTT3=
EXTT4=
EXTT5=
EXTT6=
EXTT7=
EXTT8=
EXTT9=
EXTT10=
EXTT11=
EXTT12=
EXTT13=
PLAYORDER=
